<svg width="67" height="68" viewBox="0 0 67 68" fill="none" xmlns="http://www.w3.org/2000/svg">
<path d="M17.5617 13.7217L12.0867 8.27708L7.79792 12.5658L13.2425 18.0104L17.5617 13.7217ZM9.16667 30.9375H0.041666V37.0208H9.16667V30.9375ZM36.5417 0.672913H30.4583V9.64583H36.5417V0.672913V0.672913ZM59.2021 12.5658L54.9133 8.27708L49.4687 13.7217L53.7575 18.0104L59.2021 12.5658ZM49.4383 54.2367L54.8829 59.7117L59.1717 55.4229L53.6967 49.9783L49.4383 54.2367ZM57.8333 30.9375V37.0208H66.9583V30.9375H57.8333ZM33.5 15.7292C23.4321 15.7292 15.25 23.9112 15.25 33.9792C15.25 44.0471 23.4321 52.2292 33.5 52.2292C43.5679 52.2292 51.75 44.0471 51.75 33.9792C51.75 23.9112 43.5679 15.7292 33.5 15.7292ZM30.4583 67.2854H36.5417V58.3125H30.4583V67.2854ZM7.79792 55.3925L12.0867 59.6813L17.5312 54.2063L13.2425 49.9175L7.79792 55.3925Z" fill="#D5CD07"/>
</svg>
